<svg id="Layer_1" data-name="Layer 1" xmlns="http://www.w3.org/2000/svg" viewBox="0 0 627.08 613.45"><defs><style>.cls-1{fill:lime;}</style></defs><title>icon_v2</title><path class="cls-1" d="M379,432h45l1-111a30,30,0,0,1,59-.67v112l60.5-.67q0-55.67-.08-111.33a30.56,30.56,0,0,1,59.27-.5c0,37.33,0,74.17,0,112.17H649c0.22,15.28.28,30.56,0.5,45.83l-15.5-.08v94c-1.12,4.67-8,31.54-35,47.29-25.29,14.76-50.25,9.27-55.42,8-0.51,5.78-4.46,57.91,28,78.66,2.76,1.76,11.33,6.84,25.35,8C656.13,718.56,709.88,645,721,629c39.68-57.29,43.95-115.51,44.67-133.33,0.94-23.19.16-83-38-144-44.31-70.82-110.12-97.06-132-104.67-21.61-7.52-86.08-26.68-162-2-60.6,19.7-98.92,57.73-118.67,82-37.71,46.36-48.83,93.18-52,108.67-3.28,16-13.23,72.77,11.33,138.67,5.89,15.81,21.69,57,60,92.67,20.06,18.66,41.22,31.08,52,37.33A332.45,332.45,0,0,0,439,729a30.59,30.59,0,0,1-14,56.67,291.73,291.73,0,0,1-128-73.33,303.24,303.24,0,0,1-68-90.67c-7.28-14.89-30.22-64.94-30.67-134-0.56-85.17,33.44-146,43.33-162.67,35.19-59.26,82.06-92.94,111.33-110,78.93-46,154.77-43.92,181.33-42A317.07,317.07,0,0,1,695,231c23.8,17,74.14,58.07,105.33,130,6,13.84,50.74,121.63,4,240-5.28,13.36-26.64,64.66-76,111.33-40.45,38.25-75.62,50.63-86,54-14.34,4.66-31.51,10-54,7.33-33.7-4-55.67-23.35-62-29.33-20.74-19.61-27.72-41.86-34.67-64a210.18,210.18,0,0,1-9.33-52c-5.5,1-31.06,5-56-11.33-23.81-15.56-30.8-39-32.33-44.67v-96L379,477V432Z" transform="translate(-198.33 -172.22)"/></svg>